<svg id="visual" viewBox="0 0 900 450" width="900" height="450" xmlns="http://www.w3.org/2000/svg" xmlns:xlink="http://www.w3.org/1999/xlink" version="1.1"><rect x="0" y="0" width="900" height="450" fill="#002233"></rect><path d="M0 84L25 78.8C50 73.7 100 63.3 150 56.7C200 50 250 47 300 51.5C350 56 400 68 450 75.3C500 82.7 550 85.3 600 84.7C650 84 700 80 750 80.7C800 81.3 850 86.7 875 89.3L900 92L900 0L875 0C850 0 800 0 750 0C700 0 650 0 600 0C550 0 500 0 450 0C400 0 350 0 300 0C250 0 200 0 150 0C100 0 50 0 25 0L0 0Z" fill="#03b728" stroke-linecap="round" stroke-linejoin="miter"></path></svg>